<?xml version="1.0"?>
<COLLADA xmlns="http://www.collada.org/2005/11/COLLADASchema" version="1.4.1">
    <asset>
        <contributor>
            <authoring_tool>CINEMA4D 14.042 COLLADA Exporter</authoring_tool>
        </contributor>
        <created>2020-08-07T14:38:41Z</created>
        <modified>2020-08-07T14:38:41Z</modified>
        <unit meter="0.01" name="centimeter"/>
        <up_axis>Y_UP</up_axis>
    </asset>
    <library_images>
        <image id="ID5">
            <init_from>Без%20имени-3.jpg</init_from>
        </image>
    </library_images>
    <library_effects>
        <effect id="ID2">
            <profile_COMMON>
                <technique sid="COMMON">
                    <blinn>
                        <diffuse>
                            <color>0.8 0.8 0.8 1</color>
                        </diffuse>
                        <specular>
                            <color>0.2 0.2 0.2 1</color>
                        </specular>
                        <shininess>
                            <float>0.5</float>
                        </shininess>
                    </blinn>
                </technique>
            </profile_COMMON>
        </effect>
        <effect id="ID4">
            <profile_COMMON>
                <newparam sid="ID6">
                    <surface type="2D">
                        <init_from>ID5</init_from>
                    </surface>
                </newparam>
                <newparam sid="ID7">
                    <sampler2D>
                        <source>ID6</source>
                    </sampler2D>
                </newparam>
                <technique sid="COMMON">
                    <blinn>
                        <diffuse>
                            <texture texture="ID7" texcoord="UVSET0"/>
                        </diffuse>
                    </blinn>
                </technique>
            </profile_COMMON>
        </effect>
    </library_effects>
    <library_materials>
        <material id="ID1" name="&#x41C;&#x430;&#x442;&#x435;&#x440;&#x438;&#x430;&#x43B;">
            <instance_effect url="#ID2"/>
        </material>
        <material id="ID3" name="&#x41C;&#x430;&#x442;&#x435;&#x440;&#x438;&#x430;&#x43B;.2">
            <instance_effect url="#ID4"/>
        </material>
    </library_materials>
    <library_geometries>
        <geometry id="ID10">
            <mesh>
                <source id="ID11">
                    <float_array id="ID12" count="852">79.4544 -136.396 -535.234 -8.52651e-014 -3.19744e-014 547.2 -5.68434e-014 121.776 547.2 -5.68434e-014 -121.776 410.4 2.84217e-014 -4.26326e-014 410.4 -2.84217e-014 121.776 410.4 0 -121.776 273.6 0 -4.61853e-014 273.6 -2.84217e-014 121.776 273.6 0 -121.776 136.8 -5.68434e-014 -2.84217e-014 136.8 -5.68434e-014 121.776 136.8 -5.68434e-014 -121.776 3.41061e-013 0 -2.13163e-014 3.41061e-013 -5.68434e-014 121.776 3.41061e-013 79.2613 -164.252 -517.317 -8.52651e-014 -3.19744e-014 547.2 -1.32646e-006 121.776 547.2 1.32646e-006 -121.776 410.4 2.84217e-014 -4.26326e-014 410.4 -1.32646e-006 121.776 410.4 1.32646e-006 -121.776 273.6 0 -4.61853e-014 273.6 -1.32646e-006 121.776 273.6 1.32646e-006 -121.776 136.8 -5.68434e-014 -2.84217e-014 136.8 -1.32646e-006 121.776 136.8 1.32646e-006 -121.776 4.54747e-013 0 -2.13163e-014 3.41061e-013 -1.32646e-006 121.776 2.27374e-013 4.80828 -590.038 570.127 115.374 -471.207 552.268 225.941 -352.376 534.409 -21.5477 -585.945 434.189 89.0185 -467.114 416.33 199.585 -348.283 398.471 -47.9036 -581.852 298.251 62.6626 -463.021 280.392 173.229 -344.19 262.533 4.80828 -590.038 570.127 115.374 -471.207 552.268 225.941 -352.376 534.409 -21.5477 -585.945 434.189 89.0185 -467.114 416.33 199.585 -348.283 398.471 -47.9036 -581.852 298.251 62.6626 -463.021 280.392 173.229 -344.19 262.533 869.519 -46.7687 2172.44 854.035 -134.102 2204.31 777.324 -112.102 1972.43 759.61 -212.009 2008.89 685.128 -177.435 1748.59 659.212 -323.604 1801.93 592.932 -242.769 1524.76 559.063 -433.798 1594.47 478.586 -323.799 1247.14 442.5 -527.332 1321.41 862.424 -74.3712 2175.75 892.209 14.3948 2186.52 799.833 -24.5431 1961.94 833.906 77.0028 1974.26 737.242 25.285 1724.3 787.093 173.851 1742.33 674.65 75.1131 1486.67 739.802 269.276 1510.22 597.022 136.913 1191.94 666.437 343.785 1217.03 919.817 -439.933 2708.45 945.197 -341.202 2696.62 970.578 -242.471 2684.79 860.646 -61.1048 2182.04 886.027 37.6261 2170.21 1046.72 53.7216 2649.3 1072.1 152.453 2637.47 1097.48 251.183 2625.64 1122.86 349.914 2613.81 866.252 -445.298 2548.75 914.21 -55.7396 2341.74 809.884 -258.567 2205.7 942.394 -149.105 2513.26 967.775 -50.3745 2501.43 835.265 -159.836 2193.87 1018.54 147.087 2477.77 1043.92 245.818 2465.94 964.972 141.722 2318.08 939.591 42.9913 2329.91 838.068 -351.932 2377.23 888.83 -154.471 2353.57 452.549 176.925 711.656 480.197 284.474 698.77 507.845 392.023 685.883 410.17 172.68 585.309 437.818 280.229 572.422 465.465 387.778 559.535 367.79 168.435 458.961 353.059 271.739 319.726 423.086 383.533 433.187 325.411 164.19 332.613 624.649 -272.199 1648.98 729.927 113.258 1621.81 -10.6693 -335.834 -245.128 60.7304 46.2301 -373.305 -90.0575 -137.959 -669.045 -11.1155 -11.5412 -541.496 -64.4766 -79.0258 -644.058 -72.6489 -279.504 -486.8 -98.4808 -205.986 -633.044 282 -398.818 711.382 443.098 -353.577 1165.19 539.437 -324.365 1434.62 119.478 -391.849 205.698 49.5282 -374.375 -25.1146 199.115 -404.846 462.204 396.467 210.977 508.369 237.339 166.027 60.3436 150.454 113.352 -158.69 318.703 197.8 281.428 364.155 -377.509 944.416 585.333 188.246 1109.33 492.014 209.249 803.507 665.417 157.456 1383.39 923.616 -49.5488 2365.01 853.529 -107.301 2202.2 743.966 -177.616 1929.54 805.561 16.1727 1942.5 915.142 -85.3021 2371.49 872.627 -37.9672 2197.81 -126.317 -123.544 -625.323 -128.379 -107.999 -495.083 -103.391 -89.6665 -279.829 -50.853 -75.3489 -37.9155 10.1438 -64.0364 197.055 74.411 -56.8936 403.185 172.246 -48.4658 695.761 258.091 -43.5638 930.854 378.983 -39.8083 1234.61 488.284 -39.9636 1478.45 588.91 -41.7219 1688.91 736.81 -46.0018 1983.54 850.606 -49.9173 2203.02 -80.909 -12.4512 -516.136 -35.7561 50.1648 -324.143 26.9171 116.944 -93.9177 100.905 156.571 132.812 178.982 174.471 344.707 263.065 186.374 605.675 364.222 184.864 867.386 473.641 175.555 1171.42 571.111 148.857 1429.82 657.287 102.653 1653.83 767.151 6.653 1963.65 740.388 -111.809 1956.54 598.589 -154.535 1671.61 497.479 -177.314 1461.86 384.83 -188.933 1208.44 279.998 -201.321 947.765 189.445 -212.486 715.834 93.9984 -218.209 446.613 19.3979 -214.497 216.157 -44.8559 -211.778 -17.1313 -86.271 -204.093 -252.962 -107.623 -191.647 -488.628 -118.203 -59.6085 -501.023 31.9405 57.457 172.019 100.819 65.6634 382.441 194.855 75.4082 659.752 286.201 75.1902 909.155 403.869 72.7527 1213.65 510.794 57.4138 1460.88 609.924 34.9199 1676.62 -35.8693 22.7062 -57.4008 -91.166 -19.7523 -294.066 -122.984 -113.413 -352.927 -116.393 -93.9621 -309.837 -110.286 -61.2249 -302.359 -94.9679 -17.3785 -333.673 -91.5959 -4.13733 -384.713 -95.6297 -12.3468 -428.093 -108.228 -35.4853 -455.851 -130.831 -74.1372 -466.792 -134.749 -100.89 -447.663 -125.506 -118.741 -395.647 -127.871 -55.76 -387.914 129.589 -131.986 -471.709 580.839 -171.968 358.153 641.252 -68.0791 338.491 445.82 -253.769 265.298 506.233 -149.88 245.636 566.645 -45.9905 225.973 371.214 -231.681 152.78 431.626 -127.791 133.118 492.039 -23.9019 113.455 296.608 -209.592 40.2626 357.02 -105.703 20.6 417.433 -1.81336 0.937296 222.001 -187.503 -72.2552 282.414 -83.6141 -91.9178 342.827 20.2752 -111.581 92.5287 -183.294 -466.611 580.839 -171.968 358.153 641.252 -68.0791 338.491 445.82 -253.769 265.298 506.233 -149.88 245.636 566.645 -45.9905 225.973 371.214 -231.681 152.78 431.626 -127.791 133.118 492.039 -23.9019 113.455 296.608 -209.592 40.2626 357.02 -105.703 20.6 417.433 -1.81337 0.937295 222.001 -187.503 -72.2552 282.414 -83.6141 -91.9178 342.827 20.2752 -111.581 316.55 -651.196 495.897 278.201 -492.49 498.402 239.852 -333.783 500.906 255.938 -663.886 371.979 217.589 -505.18 374.484 179.24 -346.473 376.988 195.326 -676.577 248.061 156.977 -517.87 250.566 118.629 -359.163 253.07 316.55 -651.196 495.897 278.201 -492.49 498.402 239.852 -333.783 500.906 255.938 -663.886 371.979 217.589 -505.18 374.484 179.24 -346.473 376.988 195.326 -676.577 248.061 156.977 -517.87 250.566 118.629 -359.163 253.07 -34.5638 -150.709 -655.186 45.5694 -159.5 -551.699 155.175 -166.22 -363.985 258.713 -167.002 -138.671 351.26 -165.03 86.0312 423.799 -160.337 289.469 521.442 -151.852 582.107 594.087 -143.042 821.496 679.934 -128.911 1136.66 738.99 -114.19 1396.85 784.913 -99.7522 1625.12 843.547 -77.6035 1948.8 884.418 -59.9279 2192.02 49.4176 -51.0369 -558.553 154.682 -6.21785 -386.125 271.025 44.6711 -173.368 364.347 78.574 47.0689 436.037 98.3654 261.043 527.458 108.095 519.622 601.093 114.734 790.291 688.362 111.983 1101.54 750.184 95.839 1371.53 791.206 63.0035 1610.24 838.322 -14.4185 1940.49 793.757 -127.61 1939.17 712.972 -188.401 1634.38 655.595 -224.127 1410.4 587.727 -249.004 1142.4 510.246 -269.491 872.826 439.399 -286.49 634.482 354.222 -295.253 361.918 280.782 -291.885 131.084 198.314 -283.773 -96.2763 101.493 -259.684 -314.074 -6.43121 -221.607 -521.563 59.4614 -112.209 -558.848 383.153 -46.526 57.7097 455.445 -39.3303 267.021 547.983 -29.1421 544.819 622.176 -24.2818 799.805 707.53 -17.152 1114.82 762.51 -17.1115 1378.95 802.036 -21.9584 1614.1 286.608 -72.7694 -162.358 173.835 -98.2108 -380.316 116.766 -184.395 -430.959 145.462 -171.489 -395.063 161.656 -141.739 -390.868 155.981 -91.6766 -415.35 132.436 -70.4663 -457.629 107.43 -72.4666 -494.184 89.3249 -93.9745 -520.148</float_array>
                    <technique_common>
                        <accessor count="284" source="#ID12" stride="3">
                            <param name="X" type="float"/>
                            <param name="Y" type="float"/>
                            <param name="Z" type="float"/>
                        </accessor>
                    </technique_common>
                </source>
                <source id="ID13">
                    <float_array id="ID14" count="1023">0.774922 0.0808247 -0.626868 0.829593 -0.229851 -0.508866 0.784323 0.201196 -0.58682 1 1.16697e-016 5.19403e-016 1 3.8899e-016 -1.76465e-023 1 5.29396e-024 2.07761e-016 1 2.33394e-016 -2.07761e-016 1 -2.33394e-016 6.92537e-017 1 1.55596e-016 -2.07761e-016 1 1.16697e-016 -1.03881e-016 1 3.11192e-016 -2.77015e-016 1 1.55596e-016 6.92537e-017 1 0 2.77015e-016 1 0 -0 1 4.66788e-016 0 0.849217 0.164522 -0.501759 -1 -1.08927e-008 -4.15522e-016 -1 -1.08927e-008 -1.55821e-016 -1 -1.08927e-008 -2.77015e-016 -1 -1.08927e-008 4.15522e-016 -1 -1.08927e-008 3.5293e-023 -1 -1.08927e-008 2.42388e-016 -1 -1.08927e-008 6.92537e-017 -1 -1.08927e-008 -5.68188e-016 -1 -1.08927e-008 -2.84094e-016 -1 -1.08927e-008 1.38507e-016 -1 -1.08927e-008 -0 -1 -1.08927e-008 -4.29681e-016 -1 -1.08927e-008 -2.07761e-016 0.71087 -0.685241 -0.158456 0.71087 -0.685241 -0.158456 0.71087 -0.685241 -0.158456 0.71087 -0.685241 -0.158456 0.71087 -0.685241 -0.158456 0.71087 -0.685241 -0.158456 0.71087 -0.685241 -0.158456 0.71087 -0.685241 -0.158456 -0.71087 0.685241 0.158456 -0.71087 0.685241 0.158456 -0.71087 0.685241 0.158456 -0.71087 0.685241 0.158456 -0.71087 0.685241 0.158456 -0.71087 0.685241 0.158456 -0.71087 0.685241 0.158456 -0.903513 0.278924 0.32537 -0.915319 0.270998 0.297911 -0.915319 0.270998 0.297911 -0.915319 0.270998 0.297911 -0.907114 0.264687 0.327238 -0.915319 0.270998 0.297911 -0.915319 0.270998 0.29791 -0.915319 0.270998 0.297911 -0.915319 0.270998 0.297911 -0.915319 0.270998 0.297911 -0.915319 0.270998 0.297911 -0.915319 0.270998 0.297911 -0.915319 0.270998 0.297911 -0.915319 0.270998 0.29791 -0.915319 0.270998 0.297911 -0.91532 0.270998 0.29791 -0.915319 0.270998 0.297911 -0.915319 0.270999 0.297911 -0.915319 0.270998 0.297911 -0.915319 0.270998 0.297911 -0.915319 0.270998 0.297911 -0.915319 0.270999 0.29791 -0.915319 0.270998 0.297911 -0.915319 0.270998 0.297911 -0.915319 0.270998 0.297911 -0.915319 0.270998 0.297911 -0.915319 0.270998 0.297911 -0.915319 0.270998 0.297911 -0.915319 0.270998 0.297911 -0.915319 0.270998 0.297911 -0.915319 0.270998 0.297911 -0.915319 0.270998 0.297911 -0.915319 0.270998 0.297911 -0.301258 0.0301877 -0.953065 -0.0615888 0.636836 -0.768535 -0.941651 0.129172 -0.310818 -0.92499 -0.26656 0.270813 -0.844211 -0.478801 0.240951 -0.845456 -0.496581 0.1965 -0.910334 -0.410812 0.0502474 -0.400032 -0.697268 -0.594805 -0.950279 -0.31126 0.00933461 -0.860361 0.289099 0.419762 -0.91935 0.114879 0.376297 -0.9292 -0.052546 0.365823 -0.955888 0.107935 0.273182 -0.945937 0.112566 0.30419 -0.492691 0.85586 0.157349 0.247342 0.962056 -0.115196 0.266846 0.962148 -0.0553541 -0.858731 0.465605 -0.213992 -0.993792 -0.0155104 -0.110165 0.103249 0.872912 -0.476827 0.150717 0.916477 -0.370613 -0.525 0.80584 -0.273855 -0.558972 0.825711 -0.0758446 0.166203 0.927984 -0.3335 -0.50154 0.864115 -0.041995 0.197603 0.946773 -0.254114 -0.426171 0.904193 0.0285414 0.228034 0.958473 -0.17126 -0.95207 -0.255948 0.167493 -0.929477 0.0828442 0.359457 -0.970857 0.0993973 0.218076 -0.917293 -0.25877 0.302675 -0.93778 0.109214 0.329608 -0.881807 0.11313 0.45784 -0.541343 0.742593 0.394339 -0.496733 0.859952 0.117218 -0.847336 -0.398705 0.350792 -0.845643 -0.410413 0.341247 -0.881436 -0.306417 0.359415 0.331826 0.926668 0.17657 0.311158 0.945504 0.0959324 -0.851401 -0.289801 0.437185 -0.855318 -0.344237 0.38721 -0.882975 -0.208278 0.420685 -0.403662 0.867759 0.289914 0.296678 0.953975 0.0437389 0.321604 0.937105 0.135668 -0.90565 -0.255594 0.338333 -0.930314 0.069539 0.360111 -0.803011 0.444705 0.39675 -0.900621 0.0829121 0.426623 -0.91494 0.0828486 0.394994 -0.860644 -0.232652 0.452951 -0.821927 0.44826 0.351424 -0.876761 -0.199087 0.437783 -0.870805 -0.203194 0.447674 -0.875583 0.184511 0.446442 -0.709311 0.628954 0.318267 -0.882733 0.446489 0.146391 -0.865312 0.448689 0.223414 -0.860806 0.434414 0.265137 -0.848777 0.438733 0.295111 -0.833436 0.455076 0.313511 -0.462787 0.865161 0.193193 -0.423372 0.879307 0.218119 -0.391891 0.844748 0.364447 -0.849421 -0.446535 0.281229 -0.89446 -0.236004 0.379795 -0.845946 -0.422055 0.325952 -0.942259 -0.264145 0.205853 -0.860265 -0.493112 0.129556 -0.996274 -0.08621 -0.00239156 -0.890199 0.402342 0.213697 -0.914186 0.270284 0.30201 0.279092 0.960133 -0.015895 -0.793818 0.427655 0.432394 -0.949808 0.287771 -0.122689 -0.952036 0.297634 0.0710041 -0.974622 -0.205257 0.0893328 -0.827723 0.54607 0.129157 -0.765771 0.64267 0.0238734 -0.984047 -0.120031 0.131316 -0.9614 0.00570898 0.275095 -0.750122 0.655498 -0.0874014 -0.825328 0.554609 -0.106032 0.8024 -0.516498 -0.298973 0.916435 -0.271707 -0.293805 -0.675619 0.496099 0.545367 -0.675619 0.496099 0.545367 -0.675619 0.496099 0.545367 -0.675619 0.496099 0.545367 -0.675619 0.496099 0.545367 -0.675619 0.496099 0.545367 -0.675619 0.496099 0.545367 -0.675619 0.496099 0.545367 -0.675619 0.496099 0.545367 -0.675619 0.496099 0.545367 -0.675619 0.496099 0.545367 0.900568 0.0343767 -0.433353 0.675619 -0.496099 -0.545367 0.675619 -0.496099 -0.545367 0.675619 -0.496099 -0.545367 0.675619 -0.496099 -0.545367 0.675619 -0.496099 -0.545367 0.675619 -0.496099 -0.545367 0.675619 -0.496099 -0.545367 0.675619 -0.496099 -0.545367 0.675619 -0.496099 -0.545367 -0.867992 -0.216786 0.446759 -0.867992 -0.216786 0.446759 -0.867992 -0.216786 0.446759 -0.867992 -0.216786 0.44676 -0.867992 -0.216786 0.446759 -0.867992 -0.216786 0.446759 -0.867992 -0.216786 0.446759 0.867992 0.216786 -0.446759 0.867992 0.216786 -0.44676 0.867992 0.216786 -0.44676 0.867992 0.216786 -0.446759 0.867992 0.216786 -0.446759 0.903513 -0.278924 -0.32537 0.915319 -0.270997 -0.297911 0.915319 -0.270998 -0.297911 0.915319 -0.270998 -0.297911 0.907114 -0.264687 -0.327238 0.915319 -0.270998 -0.297911 0.915319 -0.270998 -0.29791 0.915319 -0.270998 -0.297911 0.915319 -0.270998 -0.297911 0.915319 -0.270998 -0.297911 0.915319 -0.270998 -0.297911 0.915319 -0.270998 -0.297911 0.915319 -0.270998 -0.29791 0.915319 -0.270998 -0.297911 0.915319 -0.270998 -0.297911 0.915319 -0.270999 -0.297911 0.915319 -0.270998 -0.297911 0.915319 -0.270998 -0.297911 0.91532 -0.270997 -0.297911 0.915319 -0.270998 -0.297911 0.915319 -0.270999 -0.29791 0.915319 -0.270998 -0.297911 0.915319 -0.270998 -0.297911 0.915319 -0.270998 -0.297911 0.915319 -0.270998 -0.29791 0.915319 -0.270998 -0.29791 0.915319 -0.270998 -0.297911 0.915319 -0.270998 -0.297911 0.915319 -0.270998 -0.297911 0.915319 -0.270998 -0.297911 0.915319 -0.270998 -0.297911 0.915319 -0.270998 -0.297911 0.915319 -0.270998 -0.297911 0.915319 -0.270998 -0.297911 0.915319 -0.270998 -0.297911 0.530769 -0.306766 -0.79005 0.640393 -0.730022 -0.238674 0.617831 -0.72604 -0.301912 0.432017 -0.874801 -0.219281 0.438639 -0.810201 -0.388805 0.492701 -0.738482 -0.460315 0.953622 -0.247965 -0.170638 0.801226 -0.56487 -0.197382 0.883341 -0.418842 -0.210429 0.656434 -0.724702 -0.209529 0.860832 -0.422362 -0.283862 0.843276 0.460322 -0.27747 0.847235 0.477304 -0.233182 0.694457 0.00575381 -0.719511 0.60365 -0.488464 -0.630087 0.605125 0.471245 -0.641679 0.745923 0.439372 -0.500551 0.744634 0.495161 -0.447589 0.752063 0.555354 -0.354941 0.82615 0.468287 -0.313343 0.607606 -0.71772 -0.340137 0.824172 -0.432055 -0.366155 0.66959 -0.721974 -0.174364 0.86752 -0.425279 -0.257966 0.949201 0.301289 -0.0907907 0.90158 -0.414876 -0.122602 0.565989 -0.817148 -0.109205 0.69436 -0.706404 -0.137321 0.639514 -0.756724 -0.135611 0.669879 -0.740206 -0.0579484 0.731674 -0.677639 -0.0738878 0.722655 -0.683656 -0.101902 0.861326 0.493235 -0.121803 0.882605 0.467409 -0.0503652 0.859429 -0.460349 -0.2224 0.979522 -0.0830476 -0.183413 0.969346 -0.0820807 -0.231585 0.874669 -0.446999 -0.187473 0.713073 -0.698582 -0.0592493 0.959827 -0.0758538 -0.270145 0.732342 -0.675493 -0.0859345 0.984291 -0.0987883 -0.14633 0.926571 -0.349051 -0.140108 0.96482 0.133295 -0.226616 0.91758 -0.132886 -0.374684 0.89773 -0.0806515 -0.4331 0.929058 -0.0825689 -0.360602 0.848347 -0.426243 -0.314046 0.941686 -0.0992483 -0.321523 0.952049 -0.0944355 -0.291007 0.841216 0.504901 -0.193469 0.882275 -0.444948 -0.153659 0.505732 -0.847755 -0.159835 0.539919 -0.832367 -0.125108 0.618265 -0.780519 -0.0924001 0.553831 -0.824754 -0.114242 0.464239 -0.866192 -0.184913 0.407234 -0.868379 -0.28298 0.605365 -0.673043 -0.424908 0.629029 -0.567412 -0.531381 0.865107 -0.448477 -0.22463 0.717561 -0.205885 -0.665371 0.676909 -0.611789 -0.409279 1 -2.33394e-016 8.31044e-016 1 -7.00182e-016 4.15522e-016 0.71087 -0.685241 -0.158456 -0.71087 0.685241 0.158456 -0.903513 0.278924 0.32537 -0.915319 0.270997 0.297911 -0.915319 0.270998 0.297911 -0.915319 0.270998 0.297911 -0.907114 0.264687 0.327238 -0.915319 0.270998 0.297911 -0.915319 0.270998 0.29791 -0.915319 0.270998 0.297911 -0.915319 0.270998 0.297911 -0.915319 0.270998 0.297911 -0.915319 0.270998 0.297911 -0.915319 0.270998 0.297911 -0.91532 0.270997 0.297911 -0.915319 0.270998 0.29791 -0.915319 0.270998 0.29791 -0.915319 0.270998 0.297911 -0.915319 0.270998 0.297911 -0.915319 0.270998 0.297911 -0.915319 0.270998 0.297911 -0.915319 0.270998 0.297911 -0.675619 0.496099 0.545367 0.675619 -0.496099 -0.545367 -0.867992 -0.216786 0.446759 0.867992 0.216786 -0.44676 0.903513 -0.278924 -0.32537 0.915319 -0.270998 -0.297911 0.915319 -0.270998 -0.297911 0.915319 -0.270998 -0.297911 0.907114 -0.264687 -0.327238 0.915319 -0.270998 -0.297911 0.915319 -0.270998 -0.29791 0.915319 -0.270998 -0.297911 0.915319 -0.270998 -0.297911 0.915319 -0.270998 -0.297911 0.91532 -0.270998 -0.29791 0.915319 -0.270998 -0.297911 0.915319 -0.270998 -0.297911 0.915319 -0.270998 -0.297911 0.915319 -0.270998 -0.297911 0.915319 -0.270998 -0.297911 0.915319 -0.270998 -0.297911 0.915319 -0.270998 -0.297911</float_array>
                    <technique_common>
                        <accessor count="341" source="#ID14" stride="3">
                            <param name="X" type="float"/>
                            <param name="Y" type="float"/>
                            <param name="Z" type="float"/>
                        </accessor>
                    </technique_common>
                </source>
                <source id="ID15">
                    <float_array id="ID16" count="488">0.932305 0.164646 0.914523 0.155126 0.922703 0.171204 0.105161 0.950195 0.163099 0.950195 0.163099 0.901108 0.221037 0.901108 0.221037 0.852022 0.221037 0.950195 0.278976 0.901108 0.278976 0.852022 0.278976 0.950195 0.336914 0.901108 0.336914 0.852022 0.336914 0.950195 0.90951 0.172356 0.105161 0.901108 0.163099 0.852022 0.267085 0.656175 0.394041 0.656175 0.394041 0.563816 0.267085 0.748535 0.394041 0.748535 0.520996 0.656175 0.520996 0.563816 0.520996 0.748535 0.267085 0.563816 0.830448 0.586164 0.773572 0.565118 0.745118 0.585788 0.725549 0.547614 0.699303 0.573176 0.691204 0.526454 0.653489 0.560564 0.632825 0.504671 0.596667 0.544922 0.813438 0.610851 0.76526 0.620242 0.778414 0.640176 0.694761 0.6274 0.731058 0.668585 0.651605 0.646277 0.677842 0.698114 0.591783 0.665527 0.626297 0.720491 0.984159 0.494866 0.938658 0.494866 0.893157 0.521983 0.984159 0.521983 0.938658 0.576216 0.847656 0.549099 0.847656 0.576216 0.893157 0.576216 0.847656 0.603333 0.893157 0.603333 0.847656 0.630449 0.984159 0.630449 0.938658 0.657566 0.984159 0.657566 0.938658 0.684682 0.984159 0.684682 0.984159 0.711799 0.893157 0.630449 0.893157 0.657566 0.938658 0.603333 0.638785 0.770508 0.750075 0.770508 0.750075 0.863595 0.638785 0.863595 0.750075 0.956682 0.861366 0.770508 0.972656 0.863595 0.861366 0.956682 0.972656 0.770508 0.0062605 0.356045 0.0166797 0.373831 0.0156531 0.356004 0.275727 0.312099 0.280754 0.269319 0.206396 0.277043 0.0608327 0.31251 0.0167098 0.336801 0.0568866 0.333336 0.942317 0.35126 0.996807 0.340892 0.941797 0.337584 0.2707 0.354879 0.337507 0.354585 0.417801 0.430689 0.402637 0.450762 0.498521 0.447197 0.0535136 0.370549 0.0537775 0.355836 0.04899 0.409549 0.106653 0.426239 0.0532148 0.387208 0.114545 0.40178 0.181644 0.4375 0.188845 0.417514 0.255231 0.441609 0.262965 0.42647 0.328344 0.449062 0.127939 0.323323 0.119507 0.355541 0.19572 0.35521 0.350573 0.308643 0.432964 0.354164 0.866394 0.351492 0.864052 0.366693 0.332925 0.430049 0.594183 0.271167 0.521474 0.266111 0.515917 0.309967 0.861709 0.371997 0.943077 0.355671 0.754424 0.299498 0.682282 0.287793 0.687622 0.319966 0.688686 0.404374 0.68441 0.413664 0.760642 0.400074 0.438924 0.308074 0.51036 0.353823 0.690973 0.377603 0.692962 0.352139 0.611316 0.353378 0.858135 0.336579 0.608727 0.387936 0.849876 0.321665 0.759685 0.325684 0.764946 0.35187 0.996091 0.351905 0.192447 0.384867 0.266701 0.391892 0.33523 0.392091 0.425852 0.392287 0.507933 0.390404 0.50444 0.428736 0.604222 0.423726 0.762794 0.392063 0.363639 0.262702 0.602749 0.312273 0.444883 0.261984 0.201058 0.316126 0.13637 0.291942 0.0671206 0.355776 0.117225 0.376811 0.112506 0.363896 0.597127 0.437621 0.76416 0.372073 0.0621624 0.364326 0.0857541 0.367081 0.0830996 0.3496 0.105265 0.378558 0.090767 0.384312 0.0959216 0.349844 0.109391 0.354391 0.0775743 0.38316 0.0679721 0.376602 0.890886 0.142435 0.887771 0.15194 0.895012 0.166602 0.823648 0.599377 0.822197 0.624554 0.984159 0.549099 0.638785 0.956682 0.991506 0.147159 0.982113 0.147117 0.981086 0.164944 0.72455 0.100143 0.799219 0.104171 0.793881 0.065087 0.939445 0.100554 0.943391 0.12138 0.983567 0.124846 0.0579602 0.139304 0.0584806 0.125629 0.0034704 0.128937 0.649704 0.0966876 0.662771 0.142629 0.582477 0.218733 0.495837 0.21678 0.501757 0.235241 0.946764 0.158594 0.9465 0.14388 0.951287 0.197594 0.947062 0.175253 0.893625 0.214283 0.885732 0.189824 0.811432 0.205558 0.818633 0.225545 0.737312 0.214514 0.745047 0.229653 0.667352 0.218094 0.671933 0.237106 0.872339 0.111367 0.804557 0.143254 0.561354 0.0961185 0.567313 0.142208 0.136226 0.154737 0.133883 0.139536 0.59764 0.238806 0.406095 0.0592113 0.397528 0.100317 0.484361 0.0980115 0.0572002 0.143715 0.245854 0.0875418 0.240592 0.113728 0.312656 0.10801 0.311591 0.192418 0.237483 0.180108 0.239636 0.188119 0.489918 0.141867 0.309304 0.165647 0.391551 0.17598 0.388961 0.141422 0.142142 0.124623 0.492345 0.178448 0.150401 0.109709 0.236117 0.160117 0.235331 0.139914 0.00418608 0.139949 0.883053 0.164855 0.80783 0.172911 0.733576 0.179936 0.729578 0.142924 0.665048 0.180135 0.574425 0.180331 0.396055 0.21177 0.138568 0.160041 0.307316 0.140183 0.636638 0.0507457 0.555394 0.0500286 0.317996 0.0758371 0.478804 0.0541553 0.719523 0.0573632 0.863907 0.0799863 0.917178 0.137644 0.933157 0.14382 0.40315 0.225666 0.315867 0.201709 0.88077 0.143585 0.938115 0.15237 0.904356 0.137888</float_array>
                    <technique_common>
                        <accessor count="244" source="#ID16" stride="2">
                            <param name="S" type="float"/>
                            <param name="T" type="float"/>
                        </accessor>
                    </technique_common>
                </source>
                <vertices id="ID17">
                    <input semantic="POSITION" source="#ID11"/>
                </vertices>
                <triangles count="462" material="Material1">
                    <input offset="0" semantic="VERTEX" source="#ID17"/>
                    <input offset="1" semantic="NORMAL" source="#ID13"/>
                    <input offset="2" semantic="TEXCOORD" source="#ID15" set="0"/>
                    <p>282 2 2 184 1 1 283 0 0 4 5 5 5 4 4 2 3 3 6 7 7 7 6 6 4 5 5 7 6 6 8 8 8 5 4 4 9 10 10 10 9 9 7 6 6 10 9 9 11 11 11 8 8 8 12 13 13 13 12 12 10 9 9 13 12 12 14 14 14 11 11 11 281 15 15 184 1 1 282 2 2 20 18 4 19 17 5 16 16 16 22 21 6 21 20 7 18 19 17 23 22 8 22 21 6 19 17 5 25 24 9 24 23 10 21 20 7 26 25 11 25 24 9 22 21 6 28 27 12 27 26 13 24 23 10 29 28 14 28 27 12 25 24 9 33 31 20 34 30 19 31 29 18 34 30 19 35 33 22 32 32 21 36 35 24 37 34 23 34 30 19 37 34 23 38 36 25 35 33 22 43 39 19 42 38 20 39 37 26 44 40 22 43 39 19 40 37 18 46 42 23 45 41 24 42 38 20 47 43 25 46 42 23 43 39 19 50 44 29 51 44 28 49 44 27 52 45 31 53 45 30 51 45 28 54 46 33 55 46 32 53 46 30 56 47 35 57 47 34 55 47 32 61 48 38 60 48 37 58 48 36 63 49 40 62 49 39 60 49 37 65 50 42 64 50 41 62 50 39 67 51 44 66 51 43 64 51 41 87 52 47 77 52 46 68 52 45 80 55 49 87 54 47 69 53 48 88 58 52 82 57 51 79 56 50 71 59 53 82 57 51 88 58 52 72 60 55 71 60 53 78 60 54 74 63 58 83 62 57 73 61 56 84 64 59 83 62 57 74 63 58 76 65 61 84 65 59 75 65 60 85 66 63 72 67 55 86 66 62 80 55 49 79 56 50 87 54 47 80 55 49 88 58 52 79 56 50 78 68 54 88 58 52 80 55 49 86 59 62 78 59 54 81 59 64 85 66 63 86 66 62 73 69 56 84 64 59 85 70 63 83 62 57 93 71 67 92 71 66 89 71 65 94 72 69 93 72 67 90 72 68 96 74 71 95 74 70 92 73 66 97 75 72 96 75 71 93 75 67 96 74 71 98 76 73 95 74 70 128 79 76 105 78 75 103 77 74 112 82 79 111 81 78 159 80 77 162 85 82 107 84 81 106 83 80 123 88 85 126 87 84 140 86 83 128 79 76 103 77 74 107 84 81 133 90 87 132 89 86 159 80 77 120 93 90 114 92 89 146 91 88 128 79 76 129 95 92 163 94 91 141 98 95 102 97 94 104 96 93 116 100 97 102 97 94 142 99 96 115 102 99 116 100 97 143 101 98 117 104 101 115 102 99 144 103 100 131 107 104 130 106 103 161 105 102 134 109 106 133 90 87 158 108 105 162 85 82 106 83 80 161 105 102 151 111 108 139 110 107 140 86 83 114 92 89 117 104 101 145 112 109 156 115 112 118 114 111 109 113 110 127 117 114 125 116 113 151 111 108 154 120 117 110 119 116 99 118 115 100 123 120 121 122 119 149 121 118 135 125 122 134 109 106 157 124 121 136 128 125 137 127 124 169 126 123 154 120 117 137 127 124 136 128 125 140 86 83 139 110 107 152 129 126 135 125 122 136 128 125 168 130 127 153 132 129 99 118 115 124 131 128 138 133 130 139 110 107 151 111 108 126 87 84 122 134 131 140 86 83 141 98 95 104 96 93 105 78 75 141 98 95 142 99 96 102 97 94 171 135 132 143 101 98 142 99 96 164 136 133 144 103 100 143 101 98 165 137 134 164 136 133 132 89 86 146 91 88 145 112 109 165 137 134 167 139 136 166 138 135 134 109 106 148 141 138 147 140 137 167 139 136 149 121 118 148 141 138 168 130 127 150 142 139 149 121 118 169 126 123 125 116 113 100 123 120 150 142 139 140 86 83 122 134 131 127 117 114 124 131 128 123 88 85 140 86 83 139 110 107 138 133 130 153 132 129 137 127 124 154 120 117 153 132 129 157 124 121 158 108 105 113 143 140 110 119 116 154 120 117 155 144 141 135 125 122 156 115 112 155 144 141 156 115 112 157 124 121 108 145 142 158 108 105 159 80 77 111 81 78 132 89 86 131 107 104 160 146 143 101 147 144 112 82 79 160 146 143 181 148 145 129 95 92 162 85 82 128 79 76 107 84 81 162 85 82 175 150 147 130 106 103 172 149 146 163 94 91 141 98 95 105 78 75 164 136 133 171 135 132 131 107 104 145 112 109 144 103 100 164 136 133 166 138 135 165 137 134 133 90 87 147 140 137 146 91 88 166 138 135 119 151 148 120 93 90 147 140 137 121 122 119 119 151 148 148 141 138 137 127 124 138 133 130 170 152 149 151 111 108 150 142 139 170 152 149 131 107 104 171 135 132 172 149 146 183 154 151 180 153 150 181 148 145 182 155 152 162 85 82 161 105 102 106 83 80 101 147 144 161 105 102 183 154 151 175 150 147 176 156 153 142 99 96 177 157 154 176 156 153 174 159 156 173 158 155 161 105 102 163 94 91 129 95 92 180 153 150 142 99 96 141 98 95 178 160 157 181 148 145 180 153 150 129 95 92 141 98 95 163 94 91 179 161 158 183 154 151 182 155 152 173 158 155 173 158 155 174 159 156 183 154 151 175 150 147 174 159 156 130 106 103 183 154 151 181 148 145 182 155 152 183 154 151 179 161 158 180 153 150 183 154 151 178 160 157 179 161 158 183 154 151 177 157 154 178 160 157 183 154 151 176 156 153 177 157 154 174 159 156 175 150 147 183 154 151 279 163 160 278 162 159 184 1 1 188 166 5 185 165 16 186 164 3 190 168 7 187 167 17 188 166 5 191 170 6 188 166 5 189 169 4 193 168 10 190 168 7 191 170 6 194 172 9 191 170 6 192 171 8 196 173 13 193 168 10 194 172 9 197 172 12 194 172 9 195 174 11 280 175 161 184 1 1 281 15 15 204 178 4 201 177 3 200 176 16 206 180 6 203 178 5 202 179 17 207 181 8 204 178 4 203 178 5 209 180 9 206 180 6 205 180 7 210 180 11 207 181 8 206 180 6 212 183 12 209 180 9 208 182 10 213 184 14 210 180 11 209 180 9 217 187 20 214 186 26 215 185 18 218 187 19 215 185 18 216 188 21 220 189 24 217 187 20 218 187 19 221 191 23 218 187 19 219 190 22 227 192 19 224 193 18 223 192 26 228 195 22 225 194 21 224 193 18 230 193 23 227 192 19 226 195 20 231 196 25 228 195 22 227 192 19 50 197 29 48 197 162 49 197 27 52 198 31 50 198 29 51 198 28 54 199 33 52 199 31 53 199 30 56 200 35 54 200 33 55 200 32 61 201 38 59 201 163 58 201 36 63 202 40 61 202 38 60 202 37 65 203 42 63 203 40 62 203 39 67 204 44 65 204 42 64 204 41 87 205 47 69 205 48 68 205 45 80 206 49 70 206 164 69 206 48 82 209 51 88 208 52 79 207 50 71 210 53 78 210 54 88 210 52 72 211 55 86 211 62 78 211 54 83 214 57 74 213 58 73 212 56 84 216 59 75 216 60 74 215 58 84 216 59 76 217 61 75 216 60 72 211 55 85 218 63 86 218 62 79 207 50 80 220 49 87 219 47 88 208 52 80 220 49 79 207 50 78 221 54 81 221 64 80 221 49 86 222 62 73 222 56 81 222 64 85 224 63 83 223 57 73 212 56 85 224 63 84 225 59 83 214 57 93 226 67 90 226 68 89 226 65 94 227 69 91 227 165 90 227 68 96 228 71 93 228 67 92 228 66 97 229 72 94 229 69 93 229 67 98 231 73 96 230 71 95 230 70 105 78 168 232 232 167 103 77 166 112 235 171 264 234 170 263 233 169 107 84 174 266 237 173 106 236 172 126 240 177 123 239 176 244 238 175 103 77 166 232 232 167 107 84 174 237 242 179 262 241 178 263 233 169 120 93 182 251 244 181 250 243 180 233 246 184 232 232 167 267 245 183 102 97 187 245 247 186 104 96 185 116 100 190 247 249 189 246 248 188 115 102 192 248 250 191 247 249 189 117 104 194 249 251 193 248 250 191 235 253 196 264 234 170 265 252 195 238 255 198 261 254 197 262 241 178 106 236 172 266 237 173 265 252 195 243 257 200 255 256 199 244 238 175 114 92 201 250 243 180 249 251 193 260 260 204 259 259 203 109 258 202 127 117 205 244 238 175 255 256 199 258 263 208 257 262 207 99 261 206 100 123 211 254 265 210 253 264 209 239 266 212 260 260 204 261 254 197 240 269 215 272 268 214 273 267 213 258 263 208 259 259 203 240 269 215 243 257 200 244 238 175 256 270 216 239 266 212 271 271 217 272 268 214 257 262 207 256 270 216 124 272 218 242 274 220 274 273 219 255 256 199 122 275 221 126 240 177 244 238 175 104 96 185 245 247 186 105 78 168 246 248 188 245 247 186 102 97 187 275 277 223 276 276 222 246 248 188 268 278 224 275 277 223 247 249 189 269 280 226 237 242 179 236 279 225 250 243 180 270 281 227 269 280 226 271 271 217 239 266 212 238 255 198 252 282 228 272 268 214 271 271 217 253 264 209 273 267 213 272 268 214 254 265 210 274 273 219 273 267 213 125 116 229 255 256 199 254 265 210 122 275 221 244 238 175 127 117 205 124 272 218 256 270 216 244 238 175 243 257 200 256 270 216 257 262 207 241 283 230 242 274 220 257 262 207 261 254 197 108 285 232 113 284 231 110 286 233 109 258 202 259 259 203 239 266 212 240 269 215 259 259 203 260 260 204 118 287 234 108 285 232 262 241 178 113 284 231 111 288 235 236 279 225 263 233 169 264 234 170 101 289 236 265 252 195 264 234 170 15 291 238 199 290 237 266 237 173 232 232 167 233 246 184 266 237 173 279 163 160 280 175 161 276 276 222 267 245 183 232 232 167 105 78 168 268 278 224 236 279 225 235 253 196 249 251 193 269 280 226 268 278 224 270 281 227 238 255 198 237 242 179 251 244 181 271 271 217 270 281 227 119 151 239 252 282 228 251 244 181 121 122 240 253 264 209 252 282 228 241 283 230 273 267 213 274 273 219 254 265 210 255 256 199 274 273 219 235 253 196 234 292 241 276 276 222 0 293 242 184 1 1 15 291 238 199 290 237 277 294 243 265 252 195 101 289 236 106 236 172 265 252 195 279 163 160 184 1 1 280 175 161 246 248 188 276 276 222 280 175 161 278 162 159 234 292 241 265 252 195 267 245 183 283 0 0 0 293 242 246 248 188 281 15 15 282 2 2 0 293 242 15 291 238 233 246 184 245 247 186 282 2 2 283 0 0 199 290 237 184 1 1 277 294 243 278 162 159 277 294 243 184 1 1 278 162 159 279 163 160 234 292 241 15 291 238 184 1 1 199 290 237 283 0 0 184 1 1 0 293 242 1 295 16 4 5 5 2 3 3 3 296 17 6 7 7 4 5 5 4 5 5 7 6 6 5 4 4 6 7 7 9 10 10 7 6 6 7 6 6 10 9 9 8 8 8 9 10 10 12 13 13 10 9 9 10 9 9 13 12 12 11 11 11 17 26 3 20 18 4 16 16 16 19 17 5 22 21 6 18 19 17 20 18 4 23 22 8 19 17 5 22 21 6 25 24 9 21 20 7 23 22 8 26 25 11 22 21 6 25 24 9 28 27 12 24 23 10 26 25 11 29 28 14 25 24 9 30 297 26 33 31 20 31 29 18 31 29 18 34 30 19 32 32 21 33 31 20 36 35 24 34 30 19 34 30 19 37 34 23 35 33 22 40 37 18 43 39 19 39 37 26 41 298 21 44 40 22 40 37 18 43 39 19 46 42 23 42 38 20 44 40 22 47 43 25 43 39 19 48 299 162 50 299 29 49 299 27 50 300 29 52 300 31 51 300 28 52 301 31 54 301 33 53 301 30 54 302 33 56 302 35 55 302 32 59 303 163 61 303 38 58 303 36 61 304 38 63 304 40 60 304 37 63 305 40 65 305 42 62 305 39 65 306 42 67 306 44 64 306 41 69 307 48 87 307 47 68 307 45 70 308 164 80 308 49 69 308 48 78 309 54 71 309 53 88 309 52 86 310 62 72 310 55 78 310 54 75 311 60 84 311 59 74 311 58 81 312 64 78 312 54 80 312 49 73 313 56 86 313 62 81 313 64 83 314 57 85 314 63 73 314 56 90 315 68 93 315 67 89 315 65 91 316 165 94 316 69 90 316 68 93 317 67 96 317 71 92 317 66 94 318 69 97 318 72 93 318 67 160 146 143 112 82 79 159 80 77 158 108 105 133 90 87 159 80 77 147 140 137 120 93 90 146 91 88 143 101 98 116 100 97 142 99 96 144 103 100 115 102 99 143 101 98 145 112 109 117 104 101 144 103 100 160 146 143 131 107 104 161 105 102 157 124 121 134 109 106 158 108 105 146 91 88 114 92 89 145 112 109 155 144 141 156 115 112 109 113 110 140 86 83 127 117 114 151 111 108 153 132 129 154 120 117 99 118 115 150 142 139 100 123 120 149 121 118 156 115 112 135 125 122 157 124 121 168 130 127 136 128 125 169 126 123 155 144 141 154 120 117 136 128 125 167 139 136 135 125 122 168 130 127 152 129 126 153 132 129 124 131 128 170 152 149 138 133 130 151 111 108 172 149 146 171 135 132 142 99 96 171 135 132 164 136 133 143 101 98 133 90 87 165 137 134 132 89 86 166 138 135 146 91 88 165 137 134 135 125 122 167 139 136 134 109 106 168 130 127 148 141 138 167 139 136 169 126 123 149 121 118 168 130 127 170 152 149 150 142 139 169 126 123 151 111 108 125 116 113 150 142 139 152 129 126 124 131 128 140 86 83 152 129 126 139 110 107 153 132 129 138 133 130 137 127 124 153 132 129 108 145 142 157 124 121 113 143 140 109 113 110 110 119 116 155 144 141 136 128 125 135 125 122 155 144 141 118 114 111 156 115 112 108 145 142 113 143 140 158 108 105 111 81 78 159 80 77 132 89 86 160 146 143 161 105 102 101 147 144 160 146 143 182 155 152 181 148 145 162 85 82 129 95 92 128 79 76 162 85 82 176 156 153 175 150 147 172 149 146 128 79 76 163 94 91 105 78 75 132 89 86 164 136 133 131 107 104 165 137 134 145 112 109 164 136 133 134 109 106 166 138 135 133 90 87 167 139 136 147 140 137 166 138 135 148 141 138 119 151 148 147 140 137 149 121 118 121 122 119 148 141 138 169 126 123 137 127 124 170 152 149 130 106 103 131 107 104 172 149 146 173 158 155 182 155 152 161 105 102 172 149 146 142 99 96 176 156 153 130 106 103 174 159 156 161 105 102 179 161 158 163 94 91 180 153 150 177 157 154 142 99 96 178 160 157 178 160 157 141 98 95 179 161 158 189 169 4 188 166 5 186 164 3 191 170 6 190 168 7 188 166 5 192 171 8 191 170 6 189 169 4 194 172 9 193 168 10 191 170 6 195 174 11 194 172 9 192 171 8 197 172 12 196 173 13 194 172 9 198 319 14 197 172 12 195 174 11 203 178 5 204 178 4 200 176 16 205 180 7 206 180 6 202 179 17 206 180 6 207 181 8 203 178 5 208 182 10 209 180 9 205 180 7 209 180 9 210 180 11 206 180 6 211 320 13 212 183 12 208 182 10 212 183 12 213 184 14 209 180 9 218 187 19 217 187 20 215 185 18 219 190 22 218 187 19 216 188 21 221 191 23 220 189 24 218 187 19 222 321 25 221 191 23 219 190 22 226 195 20 227 192 19 223 192 26 227 192 19 228 195 22 224 193 18 229 322 24 230 193 23 226 195 20 230 193 23 231 196 25 227 192 19 51 323 28 50 323 29 49 323 27 53 324 30 52 324 31 51 324 28 55 325 32 54 325 33 53 325 30 57 326 34 56 326 35 55 326 32 60 327 37 61 327 38 58 327 36 62 328 39 63 328 40 60 328 37 64 329 41 65 329 42 62 329 39 66 330 43 67 330 44 64 330 41 77 331 46 87 331 47 68 331 45 87 219 47 80 220 49 69 332 48 82 209 51 71 333 53 88 208 52 71 334 53 72 334 55 78 334 54 83 214 57 84 225 59 74 213 58 88 208 52 78 335 54 80 220 49 78 333 54 86 333 62 81 333 64 86 218 62 85 218 63 73 336 56 92 337 66 93 337 67 89 337 65 93 338 67 94 338 69 90 338 68 95 230 70 96 230 71 92 339 66 96 340 71 97 340 72 93 340 67 111 288 235 112 235 171 263 233 169 236 279 225 237 242 179 263 233 169 114 92 201 120 93 182 250 243 180 102 97 187 116 100 190 246 248 188 116 100 190 115 102 192 247 249 189 115 102 192 117 104 194 248 250 191 234 292 241 235 253 196 265 252 195 237 242 179 238 255 198 262 241 178 117 104 194 114 92 201 249 251 193 118 287 234 260 260 204 109 258 202 125 116 229 127 117 205 255 256 199 110 286 233 258 263 208 99 261 206 121 122 240 100 123 211 253 264 209 238 255 198 239 266 212 261 254 197 241 283 230 240 269 215 273 267 213 241 283 230 258 263 208 240 269 215 240 269 215 239 266 212 272 268 214 99 261 206 257 262 207 124 272 218 243 257 200 242 274 220 255 256 199 247 249 189 275 277 223 246 248 188 248 250 191 268 278 224 247 249 189 268 278 224 269 280 226 236 279 225 249 251 193 250 243 180 269 280 226 270 281 227 271 271 217 238 255 198 251 244 181 252 282 228 271 271 217 252 282 228 253 264 209 272 268 214 253 264 209 254 265 210 273 267 213 100 123 211 125 116 229 254 265 210 123 239 176 124 272 218 244 238 175 242 274 220 243 257 200 257 262 207 258 263 208 241 283 230 257 262 207 262 241 178 261 254 197 113 284 231 258 263 208 110 286 233 259 259 203 260 260 204 239 266 212 259 259 203 261 254 197 260 260 204 108 285 232 263 233 169 262 241 178 111 288 235 235 253 196 236 279 225 264 234 170 112 235 171 101 289 236 264 234 170 233 246 184 15 291 238 266 237 173 107 84 174 232 232 167 266 237 173 234 292 241 279 163 160 276 276 222 245 247 186 267 245 183 105 78 168 275 277 223 268 278 224 235 253 196 248 250 191 249 251 193 268 278 224 269 280 226 270 281 227 237 242 179 250 243 180 251 244 181 270 281 227 120 93 182 119 151 239 251 244 181 119 151 239 121 122 240 252 282 228 242 274 220 241 283 230 274 273 219 275 277 223 235 253 196 276 276 222 266 237 173 199 290 237 265 252 195 281 15 15 246 248 188 280 175 161 277 294 243 278 162 159 265 252 195 233 246 184 267 245 183 0 293 242 245 247 186 246 248 188 282 2 2 267 245 183 245 247 186 283 0 0</p>
                </triangles>
            </mesh>
        </geometry>
    </library_geometries>
    <library_visual_scenes>
        <visual_scene id="ID8">
            <node id="ID9" name="scumbr">
                <translate sid="translate">-154.271 97.4717 -1066.15</translate>
                <rotate sid="rotateY">0 1 0 342.548</rotate>
                <rotate sid="rotateX">1 0 0 6.61952</rotate>
                <rotate sid="rotateZ">0 0 1 -345.583</rotate>
                <scale sid="scale">1 1 1</scale>
                <instance_geometry url="#ID10">
                    <bind_material>
                        <technique_common>
                            <instance_material symbol="Material1" target="#ID3">
                                <bind_vertex_input semantic="UVSET0" input_semantic="TEXCOORD" input_set="0"/>
                            </instance_material>
                        </technique_common>
                    </bind_material>
                </instance_geometry>
            </node>
        </visual_scene>
    </library_visual_scenes>
    <scene>
        <instance_visual_scene url="#ID8"/>
    </scene>
</COLLADA>
